<?xml version="1.0" encoding="UTF-8"?>
<svg id="Capa_2" data-name="Capa 2" xmlns="http://www.w3.org/2000/svg" viewBox="0 0 399.82 382.77">
  <defs>
    <style>
      .cls-1 {
        fill: #9d9d9c;
      }
    </style>
  </defs>
  <g id="Capa_1-2" data-name="Capa 1">
    <g>
      <path class="cls-1" d="M360.84,163.3v25.99h-4.66c-89.87,0-179.73,.01-269.6,0-22.07,0-40.66-16-43.24-37.1-2.77-22.63,11.47-42.93,33.81-47.9,3.79-.84,7.79-1.08,11.69-1.08,89.14-.06,178.28-.05,267.42-.04,1.42,0,2.84,.12,4.5,.19v25.79c-1.88,0-3.58,0-5.29,0-49.88,0-99.76,0-149.63,0-5.67,0-8.41,1.42-7.94,4.46,.71,4.62,4.46,4.17,7.82,4.17,49.88,0,99.76,0,149.63,0,1.72,0,3.43,0,5.4,0v17.37h-5.55c-75.62,0-151.23,0-226.85,.03-3.14,0-7.51-1.14-7.54,4.03-.03,5.18,4.34,4.07,7.49,4.08,75.47,.04,150.94,.03,226.41,.03h6.12Z"/>
      <path class="cls-1" d="M360.86,352.49v26.03h-4.69c-89.45,0-178.89,.02-268.34-.01-22.25,0-39.45-13.69-43.96-34.8-5.31-24.82,13.48-49.89,38.91-51.22,12.32-.65,24.7-.11,37.61-.11,.08,1.63,.23,3.15,.23,4.67,.02,8-.15,16,.14,23.99,.07,1.79,1.43,4.59,2.78,4.99,1.46,.43,4.21-.91,5.32-2.32,6.57-8.32,12.83-16.9,19.2-25.37,.68-.9,1.44-1.75,2.51-3.04,5.05,6.71,9.92,13.16,14.78,19.61,2.27,3.02,4.3,6.27,6.9,8.97,1.28,1.32,3.79,2.44,5.43,2.11,1.15-.23,2.49-3.04,2.53-4.74,.24-9.42,.12-18.86,.12-28.62h180.43v25.72h-5.23c-49.89,0-99.77,0-149.66,0-1.31,0-2.92-.46-3.86,.14-1.62,1.02-3.54,2.54-3.91,4.18-.21,.95,2.18,2.86,3.75,3.7,1.14,.61,2.85,.17,4.3,.17,49.74,0,99.48,0,149.22,0h5.37v17.41h-5.62c-75.19,0-150.38,0-225.58,0-1.45,0-2.92-.08-4.36,.07-2.55,.26-4.54,1.27-4.48,4.27,.06,2.92,1.87,4.06,4.54,4.18,1.31,.06,2.62,.02,3.93,.02,75.34,0,150.67,0,226.01,0,1.72,0,3.45,0,5.66,0Z"/>
      <path class="cls-1" d="M95.17,37.63C102.87,13.54,118.63-.65,143.91,.48c25.49,1.14,40.02,16.74,45.35,41.23,18.08-4.4,23.14-4.77,42.85-.05C237.42,13.21,258.32,1.84,276.13,.2c20.39-1.88,37.75,9.83,49.05,33.81,1.87-2.41,3.64-4.61,5.34-6.87,4.98-6.62,9.92-13.27,14.9-19.88,1.7-2.26,3.77-3.99,6.61-1.94,2.88,2.08,2.36,4.62,.44,7.17-6.54,8.72-12.84,17.63-19.66,26.11-3.94,4.9-6.07,10.01-6.92,16.31-3.1,22.93-23.42,40.09-46.64,40.05-23.11-.04-43.22-17.46-46.71-40.29-.21-1.35-1.52-3.14-2.75-3.63-12.51-4.89-25.08-5.52-37.7-.16-2.08,.88-3.01,1.82-3.47,4.19-4.31,21.75-19.01,35.9-40.49,39.29-23.71,3.74-47.81-13.11-52.4-36.87-.82-4.25-2.36-7.83-5.01-11.24-7.4-9.52-14.52-19.26-21.79-28.88-1.91-2.52-3.36-5.11-.22-7.56,3.19-2.48,5.3-.37,7.2,2.16,6.35,8.47,12.72,16.92,19.29,25.66Zm76.47,7.84c-.48-14.6-13.42-27.33-28.35-27.93-2.82-.11-5.13,.8-5.44,3.76-.34,3.27,1.95,4.49,4.91,4.81,11.92,1.32,19.47,8.47,20.68,19.79,.32,2.99,.57,5.77,4.41,5.6,3.92-.18,3.95-3.12,3.79-6.03Z"/>
      <path class="cls-1" d="M180.68,198.14c.95-.1,1.53-.22,2.1-.21,45.65,.01,91.31-.17,136.96,.15,20.92,.14,39.03,17.13,41.05,37.41,2.22,22.32-11.48,42.25-32.63,47.08-4.21,.96-8.63,1.33-12.96,1.34-43.33,.09-86.66,.06-129.98,.06-1.43,0-2.86,0-4.58,0v-25.68c1.59-.08,3.26-.24,4.93-.24,35.62-.01,71.24,0,106.87-.03,3.36,0,7.49,.87,8.18-4.15,.44-3.18-2.02-4.37-8.31-4.37-35.48,0-70.95,0-106.43,0-1.7,0-3.4,0-5.31,0v-17.39h4.85c24.57,0,49.14,0,73.72,0,1.31,0,2.94,.42,3.85-.19,1.39-.95,3.13-2.63,3.14-4,0-1.29-1.84-2.96-3.26-3.77-1.12-.63-2.84-.25-4.29-.25-24.14,0-48.27,0-72.41,0-1.72,0-3.43,0-5.48,0v-25.73Z"/>
      <path class="cls-1" d="M129.19,198.09h42.71v111.35c-3.35-4.38-6.12-7.95-8.84-11.55-2.8-3.71-5.51-7.49-8.34-11.17-2.78-3.61-5.67-3.63-8.44,0-5.53,7.27-10.97,14.6-17.08,22.76v-111.4Z"/>
      <path class="cls-1" d="M43.24,223.51v-25.32H120.28v25.32H43.24Z"/>
      <path class="cls-1" d="M120.61,258.29c0,8,.13,15.67-.18,23.33-.03,.82-2.61,2.18-4.01,2.19-18.3,.15-36.6,.1-54.9,.1-5.94,0-11.88,0-18.13,0v-25.62H120.61Z"/>
      <path class="cls-1" d="M43.17,64.93c-.08,11.86-9.93,21.48-21.88,21.36C9.65,86.18,.04,76.45,0,64.74c-.04-11.85,9.83-21.69,21.69-21.61,11.89,.07,21.56,9.89,21.48,21.8Z"/>
      <path class="cls-1" d="M43.31,249.2v-16.86H120.35v16.86H43.31Z"/>
      <path class="cls-1" d="M378.25,77.61c-9.71,.01-17.39-7.67-17.32-17.34,.06-9.34,7.86-17.1,17.23-17.13,9.51-.03,17.59,8.06,17.44,17.46-.15,9.42-7.88,17-17.34,17.01Z"/>
      <path class="cls-1" d="M382.53,13.09c4.59,.02,8.67,4.03,8.72,8.58,.05,4.71-4.23,8.89-8.99,8.76-4.76-.13-8.35-3.94-8.3-8.81,.05-4.82,3.8-8.56,8.57-8.54Z"/>
      <path class="cls-1" d="M30.28,21.76c-4.76,.04-8.68-3.68-8.81-8.38-.13-4.71,4.11-9.01,8.83-8.93,4.63,.08,8.52,4.06,8.51,8.74,0,4.79-3.73,8.54-8.53,8.58Z"/>
      <path class="cls-1" d="M390.91,356.82c-4.83-.08-8.39-3.78-8.36-8.67,.03-4.74,3.86-8.63,8.51-8.65,4.7-.02,8.93,4.34,8.74,9.02-.19,4.68-4.16,8.38-8.89,8.3Z"/>
      <path class="cls-1" d="M30.14,373.81c.08,4.77-3.57,8.73-8.24,8.95-4.62,.22-9.05-4.06-9.06-8.73,0-4.64,3.89-8.49,8.64-8.53,4.95-.04,8.59,3.44,8.67,8.32Z"/>
      <path class="cls-1" d="M13.03,176.37c-4.74,.02-8.66-3.76-8.75-8.42-.09-4.69,4.19-8.96,8.89-8.86,4.66,.1,8.42,4.03,8.39,8.78-.02,4.86-3.65,8.48-8.53,8.5Z"/>
      <path class="cls-1" d="M382.54,210.61c.07-4.87,3.73-8.41,8.64-8.37,4.75,.04,8.63,3.86,8.64,8.52,0,4.73-4.3,8.91-9,8.73-4.7-.18-8.34-4.09-8.27-8.88Z"/>
    </g>
  </g>
</svg>